STARTFONT 2.1
COMMENT ======================================================================
COMMENT  This is the Goha WP font hacked for Linux consoles by Daniel Yacob for
COMMENT  GohaClassic-12.psf.
COMMENT 
COMMENT  Yitna Firdiywek of GohaTibeb Associates has placed the Goha WP package
COMMENT  and these fonts into the publice domain under the GNU General Public
COMMENT  License vs 2.0 :-  ybf2u@virginia.edu
COMMENT 
COMMENT  Available at:  ftp://ftp.cs.indiana.edu/pub/fidel/fonts/linux/
COMMENT ======================================================================
FONT -Goha-ClassicFixed-Medium-R-Normal--12-150-100-100-M-120-Ethiopic-Unicode
SIZE 12 100 100
FONTBOUNDINGBOX 8 12 0 -2
STARTPROPERTIES 5
COPYRIGHT "GNU GPL 2.0"
DEFAULT_CHAR 318
FONT_ASCENT 6
FONT_DESCENT 2
_XMBDFED_INFO "Edited with xmbdfed 4.3."
ENDPROPERTIES
CHARS 352
STARTCHAR 0000
ENCODING 4608
SWIDTH 480 0
DWIDTH 8 0
BBX 7 11 0 -1
BITMAP
82
82
82
82
82
82
82
82
82
82
7C
ENDCHAR
STARTCHAR 0001
ENCODING 4609
SWIDTH 480 0
DWIDTH 8 0
BBX 8 11 0 -1
BITMAP
84
84
84
84
87
84
84
84
84
84
78
ENDCHAR
STARTCHAR 0002
ENCODING 4610
SWIDTH 480 0
DWIDTH 8 0
BBX 8 11 0 -1
BITMAP
88
88
88
88
78
08
08
08
08
08
0F
ENDCHAR
STARTCHAR 0003
ENCODING 4611
SWIDTH 480 0
DWIDTH 8 0
BBX 6 11 0 -1
BITMAP
84
84
84
84
7C
04
04
04
04
04
04
ENDCHAR
STARTCHAR 0004
ENCODING 4612
SWIDTH 480 0
DWIDTH 8 0
BBX 8 11 0 -1
BITMAP
88
88
88
88
78
08
08
08
0E
09
0E
ENDCHAR
STARTCHAR 0005
ENCODING 4613
SWIDTH 480 0
DWIDTH 8 0
BBX 7 11 1 -1
BITMAP
82
82
82
82
C2
42
42
42
42
42
3C
ENDCHAR
STARTCHAR 0006
ENCODING 4614
SWIDTH 480 0
DWIDTH 8 0
BBX 8 11 0 -1
BITMAP
86
85
86
84
84
84
84
84
84
84
78
ENDCHAR
STARTCHAR 0007
ENCODING 4616
SWIDTH 480 0
DWIDTH 8 0
BBX 6 11 0 -1
BITMAP
08
10
20
50
88
84
84
84
84
84
84
ENDCHAR
STARTCHAR 0008
ENCODING 4617
SWIDTH 480 0
DWIDTH 8 0
BBX 8 10 0 -1
BITMAP
08
10
20
50
88
87
84
84
84
84
ENDCHAR
STARTCHAR 0009
ENCODING 4618
SWIDTH 480 0
DWIDTH 8 0
BBX 8 11 0 -1
BITMAP
08
10
20
50
88
84
84
84
84
84
87
ENDCHAR
STARTCHAR 000a
ENCODING 4619
SWIDTH 480 0
DWIDTH 8 0
BBX 6 11 0 -1
BITMAP
08
10
20
50
88
84
84
84
04
04
04
ENDCHAR
STARTCHAR 000b
ENCODING 4620
SWIDTH 480 0
DWIDTH 8 0
BBX 8 11 0 -1
BITMAP
08
10
20
50
88
84
84
84
86
85
86
ENDCHAR
STARTCHAR 000c
ENCODING 4621
SWIDTH 480 0
DWIDTH 8 0
BBX 6 11 0 -1
BITMAP
04
08
10
20
50
88
84
84
C4
A4
C4
ENDCHAR
STARTCHAR 000d
ENCODING 4622
SWIDTH 480 0
DWIDTH 8 0
BBX 8 11 0 -1
BITMAP
08
10
20
50
8A
85
86
84
84
84
84
ENDCHAR
STARTCHAR 000e
ENCODING 4623
SWIDTH 480 0
DWIDTH 8 0
BBX 8 11 0 -1
BITMAP
08
10
20
50
88
84
84
04
04
1F
11
ENDCHAR
STARTCHAR 000f
ENCODING 4624
SWIDTH 480 0
DWIDTH 8 0
BBX 7 11 0 -1
BITMAP
10
10
10
7C
92
92
92
92
92
92
92
ENDCHAR
STARTCHAR 0010
ENCODING 4625
SWIDTH 480 0
DWIDTH 8 0
BBX 7 11 0 -1
BITMAP
20
20
20
70
A8
A8
AE
A8
A8
A8
A8
ENDCHAR
STARTCHAR 0011
ENCODING 4626
SWIDTH 480 0
DWIDTH 8 0
BBX 7 11 0 -1
BITMAP
20
20
20
70
A8
A8
A8
A8
A8
A8
AE
ENDCHAR
STARTCHAR 0012
ENCODING 4627
SWIDTH 480 0
DWIDTH 8 0
BBX 7 11 0 -1
BITMAP
10
10
10
7C
92
92
92
92
02
02
02
ENDCHAR
STARTCHAR 0013
ENCODING 4628
SWIDTH 480 0
DWIDTH 8 0
BBX 7 11 0 -1
BITMAP
20
20
20
70
A8
A8
A8
A8
AC
AA
AC
ENDCHAR
STARTCHAR 0014
ENCODING 4629
SWIDTH 480 0
DWIDTH 8 0
BBX 7 11 0 -1
BITMAP
40
20
10
10
7C
92
92
92
92
92
92
ENDCHAR
STARTCHAR 0015
ENCODING 4630
SWIDTH 480 0
DWIDTH 8 0
BBX 7 11 0 -1
BITMAP
10
10
10
7C
92
92
92
92
80
80
80
ENDCHAR
STARTCHAR 0016
ENCODING 4631
SWIDTH 480 0
DWIDTH 8 0
BBX 8 11 0 -1
BITMAP
10
10
10
7C
92
92
92
02
04
1F
11
ENDCHAR
STARTCHAR 0017
ENCODING 4632
SWIDTH 480 0
DWIDTH 8 0
BBX 8 9 0 -1
BITMAP
7E
A5
A5
A5
A5
A5
A5
A5
66
ENDCHAR
STARTCHAR 0018
ENCODING 4633
SWIDTH 480 0
DWIDTH 8 0
BBX 8 8 0 -1
BITMAP
7C
AA
AA
AB
AA
AA
AA
6C
ENDCHAR
STARTCHAR 0019
ENCODING 4634
SWIDTH 480 0
DWIDTH 8 0
BBX 8 11 0 -1
BITMAP
7E
A5
A5
A5
43
01
02
02
04
04
07
ENDCHAR
STARTCHAR 001a
ENCODING 4635
SWIDTH 480 0
DWIDTH 8 0
BBX 8 11 0 -1
BITMAP
7E
A5
A5
A5
43
01
01
01
01
01
01
ENDCHAR
STARTCHAR 001b
ENCODING 4636
SWIDTH 480 0
DWIDTH 8 0
BBX 8 11 0 -1
BITMAP
7E
A5
A5
A5
43
02
04
04
06
05
06
ENDCHAR
STARTCHAR 001c
ENCODING 4637
SWIDTH 480 0
DWIDTH 8 0
BBX 8 11 0 -1
BITMAP
7E
A5
A5
A5
62
20
20
40
80
80
80
ENDCHAR
STARTCHAR 001d
ENCODING 4638
SWIDTH 480 0
DWIDTH 8 0
BBX 8 11 0 -1
BITMAP
7E
A5
A5
A5
62
20
20
20
20
20
20
ENDCHAR
STARTCHAR 001e
ENCODING 4639
SWIDTH 480 0
DWIDTH 8 0
BBX 8 11 0 -1
BITMAP
7E
A5
A5
A5
43
02
04
04
04
1F
11
ENDCHAR
STARTCHAR 001f
ENCODING 4640
SWIDTH 480 0
DWIDTH 8 0
BBX 7 9 0 -1
BITMAP
92
92
92
92
92
92
92
92
7C
ENDCHAR
STARTCHAR 0020
ENCODING 4641
SWIDTH 480 0
DWIDTH 8 0
BBX 7 9 0 -1
BITMAP
A8
A8
A8
A8
AE
A8
A8
A8
70
ENDCHAR
STARTCHAR 0021
ENCODING 4642
SWIDTH 480 0
DWIDTH 8 0
BBX 7 11 0 -2
BITMAP
92
92
92
92
7E
02
02
04
08
08
0E
ENDCHAR
STARTCHAR 0022
ENCODING 4643
SWIDTH 480 0
DWIDTH 8 0
BBX 5 11 0 -1
BITMAP
A8
A8
A8
A8
A8
78
08
08
08
08
08
ENDCHAR
STARTCHAR 0023
ENCODING 4644
SWIDTH 480 0
DWIDTH 8 0
BBX 7 11 0 -2
BITMAP
92
92
92
92
7E
02
02
04
0C
0A
0C
ENDCHAR
STARTCHAR 0024
ENCODING 4645
SWIDTH 480 0
DWIDTH 8 0
BBX 6 11 1 -1
BITMAP
54
54
54
54
54
78
C0
80
80
80
80
ENDCHAR
STARTCHAR 0025
ENCODING 4646
SWIDTH 480 0
DWIDTH 8 0
BBX 7 11 0 -1
BITMAP
92
92
92
92
7C
10
20
20
40
40
40
ENDCHAR
STARTCHAR 0026
ENCODING 4647
SWIDTH 480 0
DWIDTH 8 0
BBX 8 12 0 -2
BITMAP
A8
A8
A8
A8
A8
78
08
08
08
08
3E
22
ENDCHAR
STARTCHAR 0027
ENCODING 4648
SWIDTH 480 0
DWIDTH 8 0
BBX 7 11 0 -1
BITMAP
20
20
20
20
20
20
40
80
80
80
7E
ENDCHAR
STARTCHAR 0028
ENCODING 4649
SWIDTH 480 0
DWIDTH 8 0
BBX 7 11 0 -1
BITMAP
20
20
20
20
40
80
80
7E
10
10
10
ENDCHAR
STARTCHAR 0029
ENCODING 4650
SWIDTH 480 0
DWIDTH 8 0
BBX 6 11 0 -1
BITMAP
20
20
20
20
40
40
80
88
84
84
78
ENDCHAR
STARTCHAR 002a
ENCODING 4651
SWIDTH 480 0
DWIDTH 8 0
BBX 8 11 0 -1
BITMAP
20
20
20
20
20
20
40
80
98
A4
63
ENDCHAR
STARTCHAR 002b
ENCODING 4652
SWIDTH 480 0
DWIDTH 8 0
BBX 7 11 0 -1
BITMAP
20
20
20
20
40
80
80
80
7C
0A
04
ENDCHAR
STARTCHAR 002c
ENCODING 4653
SWIDTH 480 0
DWIDTH 8 0
BBX 7 11 0 -1
BITMAP
78
80
80
80
80
80
80
80
80
80
7E
ENDCHAR
STARTCHAR 002d
ENCODING 4654
SWIDTH 480 0
DWIDTH 8 0
BBX 7 11 0 -1
BITMAP
7C
8A
84
80
80
80
80
80
80
80
7E
ENDCHAR
STARTCHAR 002e
ENCODING 4655
SWIDTH 480 0
DWIDTH 8 0
BBX 6 11 1 -1
BITMAP
88
F8
20
20
20
20
40
80
80
80
7C
ENDCHAR
STARTCHAR 002f
ENCODING 4656
SWIDTH 480 0
DWIDTH 8 0
BBX 7 11 0 -1
BITMAP
10
10
10
7C
82
82
82
82
82
82
82
ENDCHAR
STARTCHAR 0030
ENCODING 4657
SWIDTH 480 0
DWIDTH 8 0
BBX 8 11 0 -1
BITMAP
20
20
70
88
88
88
8F
88
88
88
88
ENDCHAR
STARTCHAR 0031
ENCODING 4658
SWIDTH 480 0
DWIDTH 8 0
BBX 8 11 0 -1
BITMAP
20
20
70
88
88
88
88
88
88
88
8F
ENDCHAR
STARTCHAR 0032
ENCODING 4659
SWIDTH 480 0
DWIDTH 8 0
BBX 7 11 0 -1
BITMAP
10
10
7C
82
82
82
82
02
02
02
02
ENDCHAR
STARTCHAR 0033
ENCODING 4660
SWIDTH 480 0
DWIDTH 8 0
BBX 8 11 0 -1
BITMAP
20
20
20
70
88
88
88
88
8E
89
8E
ENDCHAR
STARTCHAR 0034
ENCODING 4661
SWIDTH 480 0
DWIDTH 8 0
BBX 7 11 0 -1
BITMAP
40
20
10
7C
82
82
82
82
82
82
82
ENDCHAR
STARTCHAR 0035
ENCODING 4662
SWIDTH 480 0
DWIDTH 8 0
BBX 7 11 0 -1
BITMAP
10
10
7C
82
82
82
82
82
80
80
80
ENDCHAR
STARTCHAR 0036
ENCODING 4663
SWIDTH 480 0
DWIDTH 8 0
BBX 7 11 1 -1
BITMAP
20
20
70
88
88
88
88
08
08
3E
22
ENDCHAR
STARTCHAR 0037
ENCODING 4664
SWIDTH 480 0
DWIDTH 8 0
BBX 7 11 0 -1
BITMAP
FE
10
10
10
7C
82
82
82
82
82
82
ENDCHAR
STARTCHAR 0038
ENCODING 4665
SWIDTH 480 0
DWIDTH 8 0
BBX 8 11 0 -1
BITMAP
F8
20
20
70
88
88
8F
88
88
88
88
ENDCHAR
STARTCHAR 0039
ENCODING 4666
SWIDTH 480 0
DWIDTH 8 0
BBX 8 11 0 -1
BITMAP
F8
20
20
70
88
88
88
88
88
88
8F
ENDCHAR
STARTCHAR 003a
ENCODING 4667
SWIDTH 480 0
DWIDTH 8 0
BBX 7 11 0 -1
BITMAP
FE
10
10
7C
82
82
82
82
02
02
02
ENDCHAR
STARTCHAR 003b
ENCODING 4668
SWIDTH 480 0
DWIDTH 8 0
BBX 8 11 0 -1
BITMAP
F8
20
20
70
88
88
88
88
8E
89
8E
ENDCHAR
STARTCHAR 003c
ENCODING 4669
SWIDTH 480 0
DWIDTH 8 0
BBX 8 11 0 -1
BITMAP
FC
20
10
08
3E
41
41
41
41
41
41
ENDCHAR
STARTCHAR 003d
ENCODING 4670
SWIDTH 480 0
DWIDTH 8 0
BBX 7 11 0 -1
BITMAP
FE
10
10
7C
82
82
82
82
80
80
80
ENDCHAR
STARTCHAR 003e
ENCODING 4671
SWIDTH 480 0
DWIDTH 8 0
BBX 7 11 1 -1
BITMAP
F8
20
20
70
88
88
88
88
08
3E
22
ENDCHAR
STARTCHAR 003f
ENCODING 4672
SWIDTH 480 0
DWIDTH 8 0
BBX 7 11 0 -1
BITMAP
10
10
10
7C
92
92
7C
10
10
10
10
ENDCHAR
STARTCHAR 0040
ENCODING 4673
SWIDTH 480 0
DWIDTH 8 0
BBX 7 11 0 -1
BITMAP
10
10
10
7C
92
92
7C
10
1E
10
10
ENDCHAR
STARTCHAR 0041
ENCODING 4674
SWIDTH 480 0
DWIDTH 8 0
BBX 7 11 0 -1
BITMAP
10
10
10
7C
92
92
7C
10
10
10
1E
ENDCHAR
STARTCHAR 0042
ENCODING 4675
SWIDTH 480 0
DWIDTH 8 0
BBX 7 11 0 -1
BITMAP
10
10
7C
92
92
7C
10
10
20
40
80
ENDCHAR
STARTCHAR 0043
ENCODING 4676
SWIDTH 480 0
DWIDTH 8 0
BBX 7 11 0 -1
BITMAP
10
10
10
7C
92
92
7C
10
1C
12
1C
ENDCHAR
STARTCHAR 0044
ENCODING 4677
SWIDTH 480 0
DWIDTH 8 0
BBX 7 11 0 -1
BITMAP
40
40
30
10
7C
92
92
7C
10
10
10
ENDCHAR
STARTCHAR 0045
ENCODING 4678
SWIDTH 480 0
DWIDTH 8 0
BBX 7 11 0 -1
BITMAP
10
28
10
10
7C
92
92
7C
10
10
10
ENDCHAR
STARTCHAR 0046
ENCODING 4680
SWIDTH 480 0
DWIDTH 8 0
BBX 7 11 0 -1
BITMAP
10
10
10
7C
92
92
7C
14
1A
14
10
ENDCHAR
STARTCHAR 0047
ENCODING 4682
SWIDTH 480 0
DWIDTH 8 0
BBX 8 11 0 -1
BITMAP
10
11
11
7D
93
95
78
10
10
10
10
ENDCHAR
STARTCHAR 0048
ENCODING 4683
SWIDTH 480 0
DWIDTH 8 0
BBX 7 11 0 -1
BITMAP
10
10
7C
92
92
7C
10
10
10
7C
44
ENDCHAR
STARTCHAR 0049
ENCODING 4684
SWIDTH 480 0
DWIDTH 8 0
BBX 7 11 0 -1
BITMAP
10
10
10
7C
92
92
7C
10
18
14
78
ENDCHAR
STARTCHAR 004a
ENCODING 4685
SWIDTH 480 0
DWIDTH 8 0
BBX 8 11 0 -1
BITMAP
10
10
10
78
95
93
7D
11
11
10
10
ENDCHAR
STARTCHAR 004b
ENCODING 4688
SWIDTH 480 0
DWIDTH 8 0
BBX 7 11 0 -1
BITMAP
7C
10
10
7C
92
92
7C
10
10
10
10
ENDCHAR
STARTCHAR 004c
ENCODING 4689
SWIDTH 480 0
DWIDTH 8 0
BBX 7 11 0 -1
BITMAP
7C
10
10
7C
92
92
7C
10
1E
10
10
ENDCHAR
STARTCHAR 004d
ENCODING 4690
SWIDTH 480 0
DWIDTH 8 0
BBX 7 11 0 -1
BITMAP
7C
10
10
7C
92
92
7C
10
10
10
1E
ENDCHAR
STARTCHAR 004e
ENCODING 4691
SWIDTH 480 0
DWIDTH 8 0
BBX 7 11 0 -1
BITMAP
FE
10
10
7C
92
92
7C
10
10
20
40
ENDCHAR
STARTCHAR 004f
ENCODING 4692
SWIDTH 480 0
DWIDTH 8 0
BBX 7 11 0 -1
BITMAP
FE
10
10
7C
92
92
7C
10
1C
12
1C
ENDCHAR
STARTCHAR 0050
ENCODING 4693
SWIDTH 480 0
DWIDTH 8 0
BBX 8 11 0 -1
BITMAP
F8
20
18
08
3E
49
49
3E
08
08
08
ENDCHAR
STARTCHAR 0051
ENCODING 4694
SWIDTH 480 0
DWIDTH 8 0
BBX 7 11 0 -1
BITMAP
FE
10
28
10
7C
92
92
7C
10
10
10
ENDCHAR
STARTCHAR 0052
ENCODING 4696
SWIDTH 480 0
DWIDTH 8 0
BBX 7 11 0 -1
BITMAP
7C
10
10
7C
92
92
7C
14
1A
14
10
ENDCHAR
STARTCHAR 0053
ENCODING 4698
SWIDTH 480 0
DWIDTH 8 0
BBX 8 11 0 -1
BITMAP
7C
11
11
7D
93
95
78
10
10
10
10
ENDCHAR
STARTCHAR 0054
ENCODING 4699
SWIDTH 480 0
DWIDTH 8 0
BBX 7 11 0 -1
BITMAP
7C
10
7C
92
92
7C
10
10
10
7C
44
ENDCHAR
STARTCHAR 0055
ENCODING 4700
SWIDTH 480 0
DWIDTH 8 0
BBX 7 11 0 -1
BITMAP
7C
10
10
7C
92
92
7C
10
18
14
78
ENDCHAR
STARTCHAR 0056
ENCODING 4701
SWIDTH 480 0
DWIDTH 8 0
BBX 8 11 0 -1
BITMAP
7C
10
10
78
95
93
7D
11
11
10
10
ENDCHAR
STARTCHAR 0057
ENCODING 4704
SWIDTH 480 0
DWIDTH 8 0
BBX 7 11 0 -1
BITMAP
7C
82
82
82
82
82
82
82
82
82
82
ENDCHAR
STARTCHAR 0058
ENCODING 4705
SWIDTH 480 0
DWIDTH 8 0
BBX 8 11 0 -1
BITMAP
78
84
84
84
84
84
87
84
84
84
84
ENDCHAR
STARTCHAR 0059
ENCODING 4706
SWIDTH 480 0
DWIDTH 8 0
BBX 8 11 0 -1
BITMAP
78
84
84
84
84
84
84
84
84
84
87
ENDCHAR
STARTCHAR 005a
ENCODING 4707
SWIDTH 480 0
DWIDTH 8 0
BBX 7 11 0 -1
BITMAP
7C
82
82
82
82
82
82
02
02
02
02
ENDCHAR
STARTCHAR 005b
ENCODING 4708
SWIDTH 480 0
DWIDTH 8 0
BBX 8 11 0 -1
BITMAP
78
84
84
84
84
84
84
84
86
85
86
ENDCHAR
STARTCHAR 005c
ENCODING 4709
SWIDTH 480 0
DWIDTH 8 0
BBX 8 11 0 -1
BITMAP
1E
21
21
21
21
E1
21
21
21
21
21
ENDCHAR
STARTCHAR 005d
ENCODING 4710
SWIDTH 480 0
DWIDTH 8 0
BBX 7 11 0 -1
BITMAP
7C
82
82
82
82
82
82
80
80
80
80
ENDCHAR
STARTCHAR 0100
ENCODING 4711
SWIDTH 480 0
DWIDTH 8 0
BBX 8 11 0 -1
BITMAP
78
84
84
84
84
84
84
04
04
1F
11
ENDCHAR
STARTCHAR 0101
ENCODING 4712
SWIDTH 480 0
DWIDTH 8 0
BBX 7 11 0 -1
BITMAP
FE
00
00
7C
82
82
82
82
82
82
82
ENDCHAR
STARTCHAR 0102
ENCODING 4713
SWIDTH 480 0
DWIDTH 8 0
BBX 8 11 0 -1
BITMAP
FC
00
00
78
84
84
84
87
84
84
84
ENDCHAR
STARTCHAR 0103
ENCODING 4714
SWIDTH 480 0
DWIDTH 8 0
BBX 8 11 0 -1
BITMAP
FC
00
00
78
84
84
84
84
84
84
87
ENDCHAR
STARTCHAR 0104
ENCODING 4715
SWIDTH 480 0
DWIDTH 8 0
BBX 7 11 0 -1
BITMAP
FE
00
00
7C
82
82
82
82
02
02
02
ENDCHAR
STARTCHAR 0105
ENCODING 4716
SWIDTH 480 0
DWIDTH 8 0
BBX 8 11 0 -1
BITMAP
F8
00
00
70
88
88
88
88
8E
89
8E
ENDCHAR
STARTCHAR 0106
ENCODING 4717
SWIDTH 480 0
DWIDTH 8 0
BBX 8 11 0 -1
BITMAP
3F
00
00
1E
21
21
E1
21
21
21
21
ENDCHAR
STARTCHAR 0107
ENCODING 4718
SWIDTH 480 0
DWIDTH 8 0
BBX 7 11 0 -1
BITMAP
FE
00
00
7C
82
82
82
82
80
80
80
ENDCHAR
STARTCHAR 0108
ENCODING 4719
SWIDTH 480 0
DWIDTH 8 0
BBX 6 11 1 -1
BITMAP
F8
00
70
88
88
88
08
08
08
7C
44
ENDCHAR
STARTCHAR 0109
ENCODING 4720
SWIDTH 480 0
DWIDTH 8 0
BBX 7 11 0 -1
BITMAP
10
10
10
10
FE
10
10
10
10
10
10
ENDCHAR
STARTCHAR 010a
ENCODING 4721
SWIDTH 480 0
DWIDTH 8 0
BBX 7 11 0 -1
BITMAP
10
10
10
FE
10
10
10
1E
10
10
10
ENDCHAR
STARTCHAR 010b
ENCODING 4722
SWIDTH 480 0
DWIDTH 8 0
BBX 7 11 0 -1
BITMAP
10
10
10
FE
10
10
10
10
10
10
1E
ENDCHAR
STARTCHAR 010c
ENCODING 4723
SWIDTH 480 0
DWIDTH 8 0
BBX 7 11 0 -1
BITMAP
10
10
10
FE
10
10
10
10
20
40
80
ENDCHAR
STARTCHAR 010d
ENCODING 4724
SWIDTH 480 0
DWIDTH 8 0
BBX 7 11 0 -1
BITMAP
10
10
10
FE
10
10
10
10
1C
12
1C
ENDCHAR
STARTCHAR 010e
ENCODING 4725
SWIDTH 480 0
DWIDTH 8 0
BBX 7 11 0 -1
BITMAP
40
40
30
10
10
FE
10
10
10
10
10
ENDCHAR
STARTCHAR 010f
ENCODING 4726
SWIDTH 480 0
DWIDTH 8 0
BBX 7 11 0 -1
BITMAP
10
28
10
10
10
FE
10
10
10
10
10
ENDCHAR
STARTCHAR 0110
ENCODING 4727
SWIDTH 480 0
DWIDTH 8 0
BBX 7 11 0 -1
BITMAP
10
10
10
FE
10
10
10
10
10
7C
44
ENDCHAR
STARTCHAR 0111
ENCODING 4728
SWIDTH 480 0
DWIDTH 8 0
BBX 7 11 0 -1
BITMAP
FE
10
10
10
FE
10
10
10
10
10
10
ENDCHAR
STARTCHAR 0112
ENCODING 4729
SWIDTH 480 0
DWIDTH 8 0
BBX 7 11 0 -1
BITMAP
FE
10
10
FE
10
10
10
1E
10
10
10
ENDCHAR
STARTCHAR 0113
ENCODING 4730
SWIDTH 480 0
DWIDTH 8 0
BBX 7 11 0 -1
BITMAP
FE
10
10
FE
10
10
10
10
10
10
1E
ENDCHAR
STARTCHAR 0114
ENCODING 4731
SWIDTH 480 0
DWIDTH 8 0
BBX 7 11 0 -1
BITMAP
FE
10
10
FE
10
10
10
10
20
40
80
ENDCHAR
STARTCHAR 0115
ENCODING 4732
SWIDTH 480 0
DWIDTH 8 0
BBX 7 11 0 -1
BITMAP
FE
10
10
10
FE
10
10
10
1C
12
1C
ENDCHAR
STARTCHAR 0116
ENCODING 4733
SWIDTH 480 0
DWIDTH 8 0
BBX 8 11 0 -1
BITMAP
FE
10
08
7F
08
08
08
08
08
08
08
ENDCHAR
STARTCHAR 0117
ENCODING 4734
SWIDTH 480 0
DWIDTH 8 0
BBX 7 11 0 -1
BITMAP
FE
10
28
28
10
FE
10
10
10
10
10
ENDCHAR
STARTCHAR 0118
ENCODING 4735
SWIDTH 480 0
DWIDTH 8 0
BBX 7 11 0 -1
BITMAP
FE
10
10
FE
10
10
10
10
10
7C
44
ENDCHAR
STARTCHAR 0119
ENCODING 4736
SWIDTH 480 0
DWIDTH 8 0
BBX 6 11 0 -1
BITMAP
10
F0
10
0C
04
04
04
04
04
04
04
ENDCHAR
STARTCHAR 011a
ENCODING 4737
SWIDTH 480 0
DWIDTH 8 0
BBX 8 11 0 -1
BITMAP
10
F0
10
0C
04
04
07
04
04
04
04
ENDCHAR
STARTCHAR 011b
ENCODING 4738
SWIDTH 480 0
DWIDTH 8 0
BBX 8 11 0 -1
BITMAP
10
F0
10
0C
04
04
04
04
04
04
07
ENDCHAR
STARTCHAR 011c
ENCODING 4739
SWIDTH 480 0
DWIDTH 8 0
BBX 6 11 0 -1
BITMAP
10
F0
10
0C
04
04
04
04
04
08
F0
ENDCHAR
STARTCHAR 011d
ENCODING 4740
SWIDTH 480 0
DWIDTH 8 0
BBX 8 11 0 -1
BITMAP
10
F0
10
0C
04
04
04
04
06
05
06
ENDCHAR
STARTCHAR 011e
ENCODING 4741
SWIDTH 480 0
DWIDTH 8 0
BBX 6 11 0 -1
BITMAP
10
70
90
8C
04
04
04
04
04
04
04
ENDCHAR
STARTCHAR 011f
ENCODING 4742
SWIDTH 480 0
DWIDTH 8 0
BBX 8 10 0 -1
BITMAP
0E
15
73
90
8C
04
04
04
04
04
ENDCHAR
STARTCHAR 0120
ENCODING 4744
SWIDTH 480 0
DWIDTH 8 0
BBX 8 11 0 -1
BITMAP
20
E0
22
1D
0A
08
08
08
08
08
08
ENDCHAR
STARTCHAR 0121
ENCODING 4746
SWIDTH 480 0
DWIDTH 8 0
BBX 7 11 0 -1
BITMAP
20
E0
20
18
0A
0A
0C
0A
0A
08
08
ENDCHAR
STARTCHAR 0122
ENCODING 4747
SWIDTH 480 0
DWIDTH 8 0
BBX 7 11 0 -1
BITMAP
10
F0
90
18
08
08
08
08
08
3E
22
ENDCHAR
STARTCHAR 0123
ENCODING 4748
SWIDTH 480 0
DWIDTH 8 0
BBX 8 11 0 -1
BITMAP
10
F0
10
0C
04
04
04
06
05
3E
40
ENDCHAR
STARTCHAR 0124
ENCODING 4749
SWIDTH 480 0
DWIDTH 8 0
BBX 7 11 0 -1
BITMAP
20
E2
22
1C
0A
0A
08
08
08
08
08
ENDCHAR
STARTCHAR 0125
ENCODING 4752
SWIDTH 480 0
DWIDTH 8 0
BBX 4 11 1 -1
BITMAP
80
80
80
F0
10
10
10
10
10
10
10
ENDCHAR
STARTCHAR 0126
ENCODING 4753
SWIDTH 480 0
DWIDTH 8 0
BBX 7 11 1 -1
BITMAP
80
80
80
F0
10
10
1E
10
10
10
10
ENDCHAR
STARTCHAR 0127
ENCODING 4754
SWIDTH 480 0
DWIDTH 8 0
BBX 7 11 1 -1
BITMAP
80
80
80
F0
10
10
10
10
10
10
1E
ENDCHAR
STARTCHAR 0128
ENCODING 4755
SWIDTH 480 0
DWIDTH 8 0
BBX 6 11 0 -1
BITMAP
78
84
84
80
70
10
10
10
10
10
10
ENDCHAR
STARTCHAR 0129
ENCODING 4756
SWIDTH 480 0
DWIDTH 8 0
BBX 7 11 1 -1
BITMAP
80
80
80
F0
10
10
10
10
1C
12
1C
ENDCHAR
STARTCHAR 012a
ENCODING 4757
SWIDTH 480 0
DWIDTH 8 0
BBX 5 10 0 -1
BITMAP
F0
10
10
18
08
08
08
08
08
08
ENDCHAR
STARTCHAR 012b
ENCODING 4758
SWIDTH 480 0
DWIDTH 8 0
BBX 6 11 0 -1
BITMAP
78
94
8C
80
70
10
10
10
10
10
10
ENDCHAR
STARTCHAR 012c
ENCODING 4759
SWIDTH 480 0
DWIDTH 8 0
BBX 6 11 0 -1
BITMAP
78
84
84
80
70
10
10
10
10
7C
44
ENDCHAR
STARTCHAR 012d
ENCODING 4760
SWIDTH 480 0
DWIDTH 8 0
BBX 7 11 0 -1
BITMAP
82
FE
10
10
10
1C
04
04
04
04
04
ENDCHAR
STARTCHAR 012e
ENCODING 4761
SWIDTH 480 0
DWIDTH 8 0
BBX 8 11 0 -1
BITMAP
88
F8
20
20
38
08
0F
08
08
08
08
ENDCHAR
STARTCHAR 012f
ENCODING 4762
SWIDTH 480 0
DWIDTH 8 0
BBX 8 11 0 -1
BITMAP
88
F8
20
20
38
08
08
08
08
08
0F
ENDCHAR
STARTCHAR 0130
ENCODING 4763
SWIDTH 480 0
DWIDTH 8 0
BBX 6 11 0 -1
BITMAP
FC
30
78
84
84
80
70
10
10
10
10
ENDCHAR
STARTCHAR 0131
ENCODING 4764
SWIDTH 480 0
DWIDTH 8 0
BBX 8 11 0 -1
BITMAP
88
F8
20
20
38
08
08
08
0E
09
0E
ENDCHAR
STARTCHAR 0132
ENCODING 4765
SWIDTH 480 0
DWIDTH 8 0
BBX 6 11 0 -1
BITMAP
FC
30
78
48
08
0C
04
04
04
04
04
ENDCHAR
STARTCHAR 0133
ENCODING 4766
SWIDTH 480 0
DWIDTH 8 0
BBX 6 11 0 -1
BITMAP
FC
30
78
94
8C
80
70
10
10
10
10
ENDCHAR
STARTCHAR 0134
ENCODING 4767
SWIDTH 480 0
DWIDTH 8 0
BBX 6 11 0 -1
BITMAP
FC
30
78
84
84
80
70
10
10
7C
44
ENDCHAR
STARTCHAR 0135
ENCODING 4768
SWIDTH 480 0
DWIDTH 8 0
BBX 6 11 0 -1
BITMAP
80
80
60
20
50
88
84
84
84
84
84
ENDCHAR
STARTCHAR 0136
ENCODING 4769
SWIDTH 480 0
DWIDTH 8 0
BBX 8 11 0 -1
BITMAP
80
80
60
20
50
88
87
84
84
84
84
ENDCHAR
STARTCHAR 0137
ENCODING 4770
SWIDTH 480 0
DWIDTH 8 0
BBX 8 11 0 -1
BITMAP
80
80
60
20
50
88
84
84
84
84
87
ENDCHAR
STARTCHAR 0138
ENCODING 4771
SWIDTH 480 0
DWIDTH 8 0
BBX 6 11 0 -1
BITMAP
80
80
60
20
50
88
84
84
04
04
04
ENDCHAR
STARTCHAR 0139
ENCODING 4772
SWIDTH 480 0
DWIDTH 8 0
BBX 8 11 0 -1
BITMAP
80
80
60
20
50
88
84
84
86
85
86
ENDCHAR
STARTCHAR 013a
ENCODING 4773
SWIDTH 480 0
DWIDTH 8 0
BBX 7 11 0 -1
BITMAP
E0
F0
38
10
30
48
44
42
42
42
42
ENDCHAR
STARTCHAR 013b
ENCODING 4774
SWIDTH 480 0
DWIDTH 8 0
BBX 6 11 0 -1
BITMAP
80
80
60
20
50
88
84
84
80
80
80
ENDCHAR
STARTCHAR 013c
ENCODING 4775
SWIDTH 480 0
DWIDTH 8 0
BBX 8 11 0 -1
BITMAP
88
F8
20
20
18
08
14
22
21
21
21
ENDCHAR
STARTCHAR 013d
ENCODING 4776
SWIDTH 480 0
DWIDTH 8 0
BBX 7 11 0 -1
BITMAP
80
80
BC
42
42
42
42
42
42
42
42
ENDCHAR
STARTCHAR 013e
ENCODING 4777
SWIDTH 480 0
DWIDTH 8 0
BBX 8 11 0 -1
BITMAP
80
80
B8
44
44
44
47
44
44
44
44
ENDCHAR
STARTCHAR 013f
ENCODING 4778
SWIDTH 480 0
DWIDTH 8 0
BBX 8 11 0 -1
BITMAP
80
80
B8
44
44
44
44
44
44
44
47
ENDCHAR
STARTCHAR 0140
ENCODING 4779
SWIDTH 480 0
DWIDTH 8 0
BBX 7 11 0 -1
BITMAP
80
80
BC
42
42
42
42
42
02
02
02
ENDCHAR
STARTCHAR 0141
ENCODING 4780
SWIDTH 480 0
DWIDTH 8 0
BBX 8 11 0 -1
BITMAP
80
80
B8
44
44
44
44
44
46
45
46
ENDCHAR
STARTCHAR 0142
ENCODING 4781
SWIDTH 480 0
DWIDTH 8 0
BBX 7 11 0 -1
BITMAP
80
80
BC
42
42
42
62
22
22
22
22
ENDCHAR
STARTCHAR 0143
ENCODING 4782
SWIDTH 480 0
DWIDTH 8 0
BBX 7 11 0 -1
BITMAP
80
80
BC
42
42
42
42
42
40
40
40
ENDCHAR
STARTCHAR 0144
ENCODING 4784
SWIDTH 480 0
DWIDTH 8 0
BBX 8 11 0 -1
BITMAP
80
82
BD
46
44
44
44
44
44
44
44
ENDCHAR
STARTCHAR 0145
ENCODING 4786
SWIDTH 480 0
DWIDTH 8 0
BBX 8 11 0 -1
BITMAP
80
80
BC
44
44
45
45
46
45
45
44
ENDCHAR
STARTCHAR 0146
ENCODING 4787
SWIDTH 480 0
DWIDTH 8 0
BBX 8 11 0 -1
BITMAP
80
80
B8
44
44
44
44
04
04
1F
11
ENDCHAR
STARTCHAR 0147
ENCODING 4788
SWIDTH 480 0
DWIDTH 8 0
BBX 8 11 0 -1
BITMAP
80
80
B8
44
44
44
04
06
05
06
18
ENDCHAR
STARTCHAR 0148
ENCODING 4789
SWIDTH 480 0
DWIDTH 8 0
BBX 8 11 0 -1
BITMAP
80
81
BD
46
45
45
44
44
44
44
44
ENDCHAR
STARTCHAR 0149
ENCODING 4792
SWIDTH 480 0
DWIDTH 8 0
BBX 8 11 0 -1
BITMAP
30
E0
9E
21
21
21
21
21
21
21
21
ENDCHAR
STARTCHAR 014a
ENCODING 4793
SWIDTH 480 0
DWIDTH 8 0
BBX 8 11 0 -1
BITMAP
30
E0
98
24
24
24
27
24
24
24
24
ENDCHAR
STARTCHAR 014b
ENCODING 4794
SWIDTH 480 0
DWIDTH 8 0
BBX 8 11 0 -1
BITMAP
30
E0
98
24
24
24
24
24
24
24
27
ENDCHAR
STARTCHAR 014c
ENCODING 4795
SWIDTH 480 0
DWIDTH 8 0
BBX 7 11 0 -1
BITMAP
30
E0
9C
22
22
22
22
02
02
02
02
ENDCHAR
STARTCHAR 014d
ENCODING 4796
SWIDTH 480 0
DWIDTH 8 0
BBX 8 11 0 -1
BITMAP
30
E0
98
24
24
24
24
24
26
25
26
ENDCHAR
STARTCHAR 014e
ENCODING 4797
SWIDTH 480 0
DWIDTH 8 0
BBX 8 11 0 -1
BITMAP
30
E0
9E
21
21
21
11
11
11
11
11
ENDCHAR
STARTCHAR 014f
ENCODING 4798
SWIDTH 480 0
DWIDTH 8 0
BBX 8 11 0 -1
BITMAP
30
E0
9E
21
21
21
21
21
20
20
20
ENDCHAR
STARTCHAR 0150
ENCODING 4800
SWIDTH 480 0
DWIDTH 8 0
BBX 8 11 0 -1
BITMAP
30
E0
9A
25
26
24
24
24
24
24
24
ENDCHAR
STARTCHAR 0151
ENCODING 4802
SWIDTH 480 0
DWIDTH 8 0
BBX 8 11 0 -1
BITMAP
30
E0
98
24
25
25
26
25
25
24
24
ENDCHAR
STARTCHAR 0152
ENCODING 4803
SWIDTH 480 0
DWIDTH 8 0
BBX 8 11 0 -1
BITMAP
E0
40
40
5C
22
22
22
02
02
1F
11
ENDCHAR
STARTCHAR 0153
ENCODING 4804
SWIDTH 480 0
DWIDTH 8 0
BBX 8 11 0 -1
BITMAP
E0
40
40
5C
22
22
22
06
0D
12
20
ENDCHAR
STARTCHAR 0154
ENCODING 4805
SWIDTH 480 0
DWIDTH 8 0
BBX 8 11 0 -1
BITMAP
30
E2
9A
26
25
25
24
24
24
24
24
ENDCHAR
STARTCHAR 0155
ENCODING 4808
SWIDTH 480 0
DWIDTH 8 0
BBX 7 11 0 -1
BITMAP
7C
92
92
92
92
92
92
92
92
92
7C
ENDCHAR
STARTCHAR 0156
ENCODING 4809
SWIDTH 480 0
DWIDTH 8 0
BBX 8 11 0 -1
BITMAP
70
A8
A8
A8
A8
A8
A8
A8
AF
A8
70
ENDCHAR
STARTCHAR 0157
ENCODING 4810
SWIDTH 480 0
DWIDTH 8 0
BBX 7 11 0 -1
BITMAP
7C
92
92
92
7C
10
10
10
10
10
1E
ENDCHAR
STARTCHAR 0158
ENCODING 4811
SWIDTH 480 0
DWIDTH 8 0
BBX 7 11 0 -1
BITMAP
7C
92
92
92
7C
10
10
10
10
10
10
ENDCHAR
STARTCHAR 0159
ENCODING 4812
SWIDTH 480 0
DWIDTH 8 0
BBX 7 11 0 -1
BITMAP
7C
92
92
92
7C
10
10
10
1C
12
1C
ENDCHAR
STARTCHAR 015a
ENCODING 4813
SWIDTH 480 0
DWIDTH 8 0
BBX 8 11 0 -1
BITMAP
70
A8
AF
A8
A8
A8
A8
A8
A8
A8
70
ENDCHAR
STARTCHAR 015b
ENCODING 4814
SWIDTH 480 0
DWIDTH 8 0
BBX 7 11 0 -1
BITMAP
7C
92
92
92
7C
10
20
40
80
80
80
ENDCHAR
STARTCHAR 015c
ENCODING 4816
SWIDTH 480 0
DWIDTH 8 0
BBX 6 11 0 -1
BITMAP
78
84
84
84
84
84
84
84
84
84
78
ENDCHAR
STARTCHAR 015d
ENCODING 4817
SWIDTH 480 0
DWIDTH 8 0
BBX 8 11 0 -1
BITMAP
78
84
84
84
84
87
84
84
84
84
78
ENDCHAR
STARTCHAR 0200
ENCODING 4818
SWIDTH 480 0
DWIDTH 8 0
BBX 7 11 0 -1
BITMAP
70
88
88
88
7C
04
08
10
10
10
1E
ENDCHAR
STARTCHAR 0201
ENCODING 4819
SWIDTH 480 0
DWIDTH 8 0
BBX 6 11 0 -1
BITMAP
70
88
88
88
7C
04
04
04
04
04
04
ENDCHAR
STARTCHAR 0202
ENCODING 4820
SWIDTH 480 0
DWIDTH 8 0
BBX 8 11 0 -1
BITMAP
70
88
88
88
7C
04
04
04
06
05
06
ENDCHAR
STARTCHAR 0203
ENCODING 4821
SWIDTH 480 0
DWIDTH 8 0
BBX 6 11 0 -1
BITMAP
30
30
78
84
84
84
84
84
84
84
78
ENDCHAR
STARTCHAR 0204
ENCODING 4822
SWIDTH 480 0
DWIDTH 8 0
BBX 5 11 0 -1
BITMAP
70
88
88
88
88
70
40
80
80
80
80
ENDCHAR
STARTCHAR 0205
ENCODING 4824
SWIDTH 480 0
DWIDTH 8 0
BBX 6 11 0 -1
BITMAP
84
84
84
84
FC
84
84
84
84
84
84
ENDCHAR
STARTCHAR 0206
ENCODING 4825
SWIDTH 480 0
DWIDTH 8 0
BBX 8 11 0 -1
BITMAP
88
88
88
88
F8
88
8F
88
88
88
88
ENDCHAR
STARTCHAR 0207
ENCODING 4826
SWIDTH 480 0
DWIDTH 8 0
BBX 8 11 0 -1
BITMAP
88
88
88
88
F8
88
88
88
88
88
8F
ENDCHAR
STARTCHAR 0208
ENCODING 4827
SWIDTH 480 0
DWIDTH 8 0
BBX 6 11 0 -1
BITMAP
84
84
84
FC
84
84
84
04
04
04
04
ENDCHAR
STARTCHAR 0209
ENCODING 4828
SWIDTH 480 0
DWIDTH 8 0
BBX 8 11 0 -1
BITMAP
88
88
88
F8
88
88
88
88
8E
89
8E
ENDCHAR
STARTCHAR 020a
ENCODING 4829
SWIDTH 480 0
DWIDTH 8 0
BBX 7 11 0 -1
BITMAP
02
E2
22
3E
22
22
22
22
22
22
22
ENDCHAR
STARTCHAR 020b
ENCODING 4830
SWIDTH 480 0
DWIDTH 8 0
BBX 6 11 0 -1
BITMAP
84
84
84
FC
84
84
84
80
80
80
80
ENDCHAR
STARTCHAR 020c
ENCODING 4831
SWIDTH 480 0
DWIDTH 8 0
BBX 8 11 0 -1
BITMAP
84
84
84
FC
84
84
84
04
04
1F
11
ENDCHAR
STARTCHAR 020d
ENCODING 4832
SWIDTH 480 0
DWIDTH 8 0
BBX 8 11 0 -1
BITMAP
C3
42
42
7E
42
42
42
42
42
42
42
ENDCHAR
STARTCHAR 020e
ENCODING 4833
SWIDTH 480 0
DWIDTH 8 0
BBX 8 11 0 -1
BITMAP
C6
44
44
7C
44
47
44
44
44
44
44
ENDCHAR
STARTCHAR 020f
ENCODING 4834
SWIDTH 480 0
DWIDTH 8 0
BBX 8 11 0 -1
BITMAP
C6
44
44
7C
44
44
44
44
44
44
47
ENDCHAR
STARTCHAR 0210
ENCODING 4835
SWIDTH 480 0
DWIDTH 8 0
BBX 8 11 0 -1
BITMAP
C3
42
42
7E
42
42
42
02
02
02
02
ENDCHAR
STARTCHAR 0211
ENCODING 4836
SWIDTH 480 0
DWIDTH 8 0
BBX 8 11 0 -1
BITMAP
C6
44
44
7C
44
44
44
44
46
45
46
ENDCHAR
STARTCHAR 0212
ENCODING 4837
SWIDTH 480 0
DWIDTH 8 0
BBX 8 11 0 -1
BITMAP
43
E2
22
3E
22
22
22
22
22
22
22
ENDCHAR
STARTCHAR 0213
ENCODING 4838
SWIDTH 480 0
DWIDTH 8 0
BBX 8 11 0 -1
BITMAP
C3
42
42
7E
42
42
42
40
40
40
40
ENDCHAR
STARTCHAR 0214
ENCODING 4839
SWIDTH 480 0
DWIDTH 8 0
BBX 8 11 0 -1
BITMAP
C6
44
44
7C
44
44
44
04
04
1F
11
ENDCHAR
STARTCHAR 0215
ENCODING 4840
SWIDTH 480 0
DWIDTH 8 0
BBX 6 11 0 -1
BITMAP
30
48
84
84
44
28
10
10
10
10
10
ENDCHAR
STARTCHAR 0216
ENCODING 4841
SWIDTH 480 0
DWIDTH 8 0
BBX 7 11 0 -1
BITMAP
30
48
84
84
44
28
10
10
1E
10
10
ENDCHAR
STARTCHAR 0217
ENCODING 4842
SWIDTH 480 0
DWIDTH 8 0
BBX 7 11 0 -1
BITMAP
30
48
88
88
50
20
24
3C
22
22
20
ENDCHAR
STARTCHAR 0218
ENCODING 4843
SWIDTH 480 0
DWIDTH 8 0
BBX 5 11 1 -1
BITMAP
30
48
88
88
50
20
10
10
20
40
80
ENDCHAR
STARTCHAR 0219
ENCODING 4844
SWIDTH 480 0
DWIDTH 8 0
BBX 7 11 0 -1
BITMAP
30
48
88
88
50
20
3C
2A
24
20
20
ENDCHAR
STARTCHAR 021a
ENCODING 4845
SWIDTH 480 0
DWIDTH 8 0
BBX 6 10 0 -1
BITMAP
30
48
88
88
50
24
24
78
80
80
ENDCHAR
STARTCHAR 021b
ENCODING 4846
SWIDTH 480 0
DWIDTH 8 0
BBX 8 11 0 -1
BITMAP
30
48
8F
88
50
20
20
20
20
20
20
ENDCHAR
STARTCHAR 021d
ENCODING 4848
SWIDTH 480 0
DWIDTH 8 0
BBX 7 11 0 -1
BITMAP
70
88
88
88
50
20
10
3C
42
42
42
ENDCHAR
STARTCHAR 021e
ENCODING 4849
SWIDTH 480 0
DWIDTH 8 0
BBX 8 11 0 -1
BITMAP
60
90
90
A0
C0
40
7F
88
88
88
88
ENDCHAR
STARTCHAR 021f
ENCODING 4850
SWIDTH 480 0
DWIDTH 8 0
BBX 8 11 0 -1
BITMAP
60
90
90
A0
C0
40
70
88
88
88
8F
ENDCHAR
STARTCHAR 0220
ENCODING 4851
SWIDTH 480 0
DWIDTH 8 0
BBX 7 11 0 -1
BITMAP
70
88
88
88
50
20
10
7C
82
02
02
ENDCHAR
STARTCHAR 0221
ENCODING 4852
SWIDTH 480 0
DWIDTH 8 0
BBX 8 11 0 -1
BITMAP
60
90
90
A0
C0
40
70
88
8E
89
8E
ENDCHAR
STARTCHAR 0222
ENCODING 4853
SWIDTH 480 0
DWIDTH 8 0
BBX 8 11 0 -1
BITMAP
70
8F
88
88
50
20
10
3C
42
42
42
ENDCHAR
STARTCHAR 0223
ENCODING 4854
SWIDTH 480 0
DWIDTH 8 0
BBX 7 11 0 -1
BITMAP
70
88
88
88
50
20
10
7C
82
80
80
ENDCHAR
STARTCHAR 0224
ENCODING 4855
SWIDTH 480 0
DWIDTH 8 0
BBX 8 11 0 -1
BITMAP
70
88
88
88
50
20
10
78
84
1F
11
ENDCHAR
STARTCHAR 0225
ENCODING 4856
SWIDTH 480 0
DWIDTH 8 0
BBX 7 11 0 -1
BITMAP
70
88
F8
88
50
20
10
3C
42
42
42
ENDCHAR
STARTCHAR 0226
ENCODING 4857
SWIDTH 480 0
DWIDTH 8 0
BBX 8 11 0 -1
BITMAP
60
90
F0
A0
C0
40
7F
88
88
88
88
ENDCHAR
STARTCHAR 0227
ENCODING 4858
SWIDTH 480 0
DWIDTH 8 0
BBX 8 11 0 -1
BITMAP
60
90
F0
A0
C0
40
70
88
88
88
8F
ENDCHAR
STARTCHAR 0228
ENCODING 4859
SWIDTH 480 0
DWIDTH 8 0
BBX 7 11 0 -1
BITMAP
70
88
F8
88
50
20
10
7C
82
02
02
ENDCHAR
STARTCHAR 0229
ENCODING 4860
SWIDTH 480 0
DWIDTH 8 0
BBX 8 11 0 -1
BITMAP
60
90
F0
A0
C0
40
70
88
8E
89
8E
ENDCHAR
STARTCHAR 022a
ENCODING 4861
SWIDTH 480 0
DWIDTH 8 0
BBX 8 11 0 -1
BITMAP
70
8F
F8
88
50
20
10
3C
42
42
42
ENDCHAR
STARTCHAR 022b
ENCODING 4862
SWIDTH 480 0
DWIDTH 8 0
BBX 7 11 0 -1
BITMAP
70
88
F8
88
50
20
10
7C
82
80
80
ENDCHAR
STARTCHAR 022c
ENCODING 4863
SWIDTH 480 0
DWIDTH 8 0
BBX 8 11 0 -1
BITMAP
70
88
F8
88
50
20
10
78
84
1F
11
ENDCHAR
STARTCHAR 022d
ENCODING 4864
SWIDTH 480 0
DWIDTH 8 0
BBX 7 11 0 -1
BITMAP
F8
20
70
88
88
50
20
10
3C
42
42
ENDCHAR
STARTCHAR 022e
ENCODING 4865
SWIDTH 480 0
DWIDTH 8 0
BBX 8 11 0 -1
BITMAP
F8
20
60
90
90
A0
40
7F
84
84
84
ENDCHAR
STARTCHAR 022f
ENCODING 4866
SWIDTH 480 0
DWIDTH 8 0
BBX 8 11 0 -1
BITMAP
F8
20
60
90
90
A0
40
78
84
84
87
ENDCHAR
STARTCHAR 0230
ENCODING 4867
SWIDTH 480 0
DWIDTH 8 0
BBX 8 12 0 -2
BITMAP
F8
20
70
88
88
50
20
10
7C
82
02
02
ENDCHAR
STARTCHAR 0231
ENCODING 4868
SWIDTH 480 0
DWIDTH 8 0
BBX 8 11 0 -1
BITMAP
F8
20
60
90
90
A0
40
78
86
85
86
ENDCHAR
STARTCHAR 0232
ENCODING 4869
SWIDTH 480 0
DWIDTH 8 0
BBX 8 12 0 -2
BITMAP
F8
20
70
8F
88
50
20
10
3C
42
42
42
ENDCHAR
STARTCHAR 0233
ENCODING 4870
SWIDTH 480 0
DWIDTH 8 0
BBX 8 12 0 -2
BITMAP
F8
20
70
88
88
50
20
10
7C
82
80
80
ENDCHAR
STARTCHAR 0234
ENCODING 4871
SWIDTH 480 0
DWIDTH 8 0
BBX 8 12 0 -2
BITMAP
F8
20
70
88
88
50
20
10
78
84
1F
11
ENDCHAR
STARTCHAR 0235
ENCODING 4872
SWIDTH 480 0
DWIDTH 8 0
BBX 5 11 1 -1
BITMAP
F0
08
08
08
08
08
08
08
08
08
08
ENDCHAR
STARTCHAR 0236
ENCODING 4873
SWIDTH 480 0
DWIDTH 8 0
BBX 8 11 0 -1
BITMAP
F0
08
08
08
08
0F
08
08
08
08
08
ENDCHAR
STARTCHAR 0237
ENCODING 4874
SWIDTH 480 0
DWIDTH 8 0
BBX 8 11 0 -1
BITMAP
F0
08
08
08
08
08
08
08
08
08
0F
ENDCHAR
STARTCHAR 0238
ENCODING 4875
SWIDTH 480 0
DWIDTH 8 0
BBX 6 11 0 -1
BITMAP
F8
04
04
04
04
04
04
04
04
04
F8
ENDCHAR
STARTCHAR 0239
ENCODING 4876
SWIDTH 480 0
DWIDTH 8 0
BBX 8 11 0 -1
BITMAP
F0
08
08
08
08
08
08
08
0E
09
0E
ENDCHAR
STARTCHAR 023a
ENCODING 4877
SWIDTH 480 0
DWIDTH 8 0
BBX 6 11 0 -1
BITMAP
F8
A4
44
04
04
04
04
04
04
04
04
ENDCHAR
STARTCHAR 023b
ENCODING 4878
SWIDTH 480 0
DWIDTH 8 0
BBX 6 11 0 -1
BITMAP
20
20
F8
04
04
04
04
04
04
04
04
ENDCHAR
STARTCHAR 023c
ENCODING 4880
SWIDTH 480 0
DWIDTH 8 0
BBX 8 11 0 -1
BITMAP
F0
08
08
08
0E
0D
0A
08
08
08
08
ENDCHAR
STARTCHAR 023d
ENCODING 4882
SWIDTH 480 0
DWIDTH 8 0
BBX 7 11 0 -1
BITMAP
F0
08
08
08
0A
0A
0C
0A
0A
08
08
ENDCHAR
STARTCHAR 023e
ENCODING 4883
SWIDTH 480 0
DWIDTH 8 0
BBX 6 11 0 -1
BITMAP
E0
90
10
38
24
04
04
04
04
04
04
ENDCHAR
STARTCHAR 023f
ENCODING 4884
SWIDTH 480 0
DWIDTH 8 0
BBX 7 11 0 -1
BITMAP
F0
08
08
08
0C
0A
0C
10
20
40
40
ENDCHAR
STARTCHAR 0240
ENCODING 4885
SWIDTH 480 0
DWIDTH 8 0
BBX 7 11 0 -1
BITMAP
F2
0A
0C
0A
0A
08
08
08
08
08
08
ENDCHAR
STARTCHAR Ge
ENCODING 4888
SWIDTH 480 0
DWIDTH 8 0
BBX 5 11 1 -1
BITMAP
F8
20
F0
08
08
08
08
08
08
08
08
ENDCHAR
STARTCHAR 0242
ENCODING 4889
SWIDTH 480 0
DWIDTH 8 0
BBX 8 11 0 -1
BITMAP
F8
20
F0
08
08
0F
08
08
08
08
08
ENDCHAR
STARTCHAR 0243
ENCODING 4890
SWIDTH 480 0
DWIDTH 8 0
BBX 8 11 0 -1
BITMAP
F8
20
F0
08
08
08
08
08
08
08
0F
ENDCHAR
STARTCHAR 0244
ENCODING 4891
SWIDTH 480 0
DWIDTH 8 0
BBX 6 11 0 -1
BITMAP
F8
20
F8
04
04
04
04
04
04
04
F8
ENDCHAR
STARTCHAR 0245
ENCODING 4892
SWIDTH 480 0
DWIDTH 8 0
BBX 8 11 0 -1
BITMAP
F8
20
F0
08
08
08
08
08
0E
09
0E
ENDCHAR
STARTCHAR 0246
ENCODING 4893
SWIDTH 480 0
DWIDTH 8 0
BBX 6 11 0 -1
BITMAP
F8
20
F8
A4
44
04
04
04
04
04
04
ENDCHAR
STARTCHAR 0247
ENCODING 4894
SWIDTH 480 0
DWIDTH 8 0
BBX 6 11 0 -1
BITMAP
F8
50
50
F8
04
04
04
04
04
04
04
ENDCHAR
STARTCHAR 0248
ENCODING 4896
SWIDTH 480 0
DWIDTH 8 0
BBX 7 11 0 -1
BITMAP
7C
92
92
92
92
92
92
92
92
92
92
ENDCHAR
STARTCHAR 0249
ENCODING 4897
SWIDTH 480 0
DWIDTH 8 0
BBX 8 11 0 -1
BITMAP
70
A8
A8
A8
A8
AF
A8
A8
A8
A8
A8
ENDCHAR
STARTCHAR 024a
ENCODING 4898
SWIDTH 480 0
DWIDTH 8 0
BBX 8 11 0 -1
BITMAP
70
A8
A8
A8
A8
A8
A8
A8
A8
A8
AF
ENDCHAR
STARTCHAR 024b
ENCODING 4899
SWIDTH 480 0
DWIDTH 8 0
BBX 7 11 0 -1
BITMAP
7C
92
92
92
92
92
02
02
02
02
02
ENDCHAR
STARTCHAR 024c
ENCODING 4900
SWIDTH 480 0
DWIDTH 8 0
BBX 8 11 0 -1
BITMAP
70
A8
A8
A8
A8
A8
A8
A8
AE
A9
AE
ENDCHAR
STARTCHAR 024d
ENCODING 4901
SWIDTH 480 0
DWIDTH 8 0
BBX 7 11 0 -1
BITMAP
7C
92
92
92
92
08
08
08
08
08
08
ENDCHAR
STARTCHAR 024e
ENCODING 4902
SWIDTH 480 0
DWIDTH 8 0
BBX 7 11 0 -1
BITMAP
7C
92
92
92
92
92
80
80
80
80
80
ENDCHAR
STARTCHAR 024f
ENCODING 4903
SWIDTH 480 0
DWIDTH 8 0
BBX 7 11 0 -1
BITMAP
70
A8
A8
A8
A8
A8
A8
08
08
3E
22
ENDCHAR
STARTCHAR 0250
ENCODING 4904
SWIDTH 480 0
DWIDTH 8 0
BBX 8 11 0 -1
BITMAP
7C
92
92
92
92
92
92
92
92
DB
DB
ENDCHAR
STARTCHAR 0251
ENCODING 4905
SWIDTH 480 0
DWIDTH 8 0
BBX 8 11 0 -1
BITMAP
7C
92
92
92
92
92
92
92
92
DB
DB
ENDCHAR
STARTCHAR 0252
ENCODING 4906
SWIDTH 480 0
DWIDTH 8 0
BBX 8 11 0 -1
BITMAP
7C
92
92
92
93
93
92
92
92
DA
DA
ENDCHAR
STARTCHAR 0253
ENCODING 4907
SWIDTH 480 0
DWIDTH 8 0
BBX 8 11 0 -1
BITMAP
7C
92
92
92
92
DA
DA
02
02
03
03
ENDCHAR
STARTCHAR 0254
ENCODING 4908
SWIDTH 480 0
DWIDTH 8 0
BBX 8 11 0 -1
BITMAP
7C
92
92
92
92
92
92
92
92
DD
DA
ENDCHAR
STARTCHAR 0255
ENCODING 4909
SWIDTH 480 0
DWIDTH 8 0
BBX 8 11 0 -1
BITMAP
7C
92
92
92
D3
D3
08
08
08
0C
0C
ENDCHAR
STARTCHAR 0256
ENCODING 4910
SWIDTH 480 0
DWIDTH 8 0
BBX 8 11 0 -1
BITMAP
7C
92
92
92
9B
9B
80
80
80
C0
C0
ENDCHAR
STARTCHAR 0257
ENCODING 4911
SWIDTH 480 0
DWIDTH 8 0
BBX 8 11 0 -1
BITMAP
7C
92
92
92
92
DA
DA
02
02
1F
11
ENDCHAR
STARTCHAR 0258
ENCODING 4912
SWIDTH 480 0
DWIDTH 8 0
BBX 5 11 1 -1
BITMAP
20
20
70
88
88
50
20
50
88
88
88
ENDCHAR
STARTCHAR 0259
ENCODING 4913
SWIDTH 480 0
DWIDTH 8 0
BBX 7 11 1 -1
BITMAP
20
20
70
88
88
88
50
20
5E
88
88
ENDCHAR
STARTCHAR 025a
ENCODING 4914
SWIDTH 480 0
DWIDTH 8 0
BBX 8 11 0 -1
BITMAP
20
20
70
88
88
88
50
20
50
88
8F
ENDCHAR
STARTCHAR 025b
ENCODING 4915
SWIDTH 480 0
DWIDTH 8 0
BBX 8 12 0 -2
BITMAP
10
10
38
44
44
38
10
28
44
44
04
04
ENDCHAR
STARTCHAR 025c
ENCODING 4916
SWIDTH 480 0
DWIDTH 8 0
BBX 7 11 1 -1
BITMAP
20
20
70
88
88
88
50
20
54
8A
8C
ENDCHAR
STARTCHAR 025d
ENCODING 4917
SWIDTH 480 0
DWIDTH 8 0
BBX 8 12 0 -2
BITMAP
20
20
70
8F
88
88
50
20
50
88
88
88
ENDCHAR
STARTCHAR 0300
ENCODING 4918
SWIDTH 480 0
DWIDTH 8 0
BBX 8 12 0 -2
BITMAP
10
10
38
44
44
44
28
10
28
44
40
40
ENDCHAR
STARTCHAR 0301
ENCODING 4919
SWIDTH 480 0
DWIDTH 8 0
BBX 8 12 0 -2
BITMAP
10
10
38
44
44
28
30
48
44
04
1F
11
ENDCHAR
STARTCHAR 0302
ENCODING 4920
SWIDTH 480 0
DWIDTH 8 0
BBX 5 11 1 -1
BITMAP
70
88
88
88
50
20
50
88
88
88
88
ENDCHAR
STARTCHAR 0303
ENCODING 4921
SWIDTH 480 0
DWIDTH 8 0
BBX 7 11 1 -1
BITMAP
70
88
88
88
50
20
50
8E
88
88
88
ENDCHAR
STARTCHAR 0304
ENCODING 4922
SWIDTH 480 0
DWIDTH 8 0
BBX 7 11 1 -1
BITMAP
70
88
88
88
50
20
50
88
88
88
8E
ENDCHAR
STARTCHAR 0305
ENCODING 4923
SWIDTH 480 0
DWIDTH 8 0
BBX 5 11 1 -1
BITMAP
70
88
88
88
50
20
50
88
08
08
08
ENDCHAR
STARTCHAR 0306
ENCODING 4924
SWIDTH 480 0
DWIDTH 8 0
BBX 7 11 1 -1
BITMAP
70
88
88
88
50
20
50
88
8C
8A
8C
ENDCHAR
STARTCHAR 0307
ENCODING 4925
SWIDTH 480 0
DWIDTH 8 0
BBX 8 11 0 -1
BITMAP
70
8F
88
88
50
20
50
88
88
88
88
ENDCHAR
STARTCHAR 0308
ENCODING 4926
SWIDTH 480 0
DWIDTH 8 0
BBX 5 11 1 -1
BITMAP
70
88
88
88
50
20
50
88
88
80
80
ENDCHAR
STARTCHAR 0309
ENCODING 4927
SWIDTH 480 0
DWIDTH 8 0
BBX 7 11 1 -1
BITMAP
70
88
88
88
50
60
90
88
08
3E
22
ENDCHAR
STARTCHAR 030a
ENCODING 4928
SWIDTH 480 0
DWIDTH 8 0
BBX 6 11 0 -1
BITMAP
78
84
84
84
FC
84
84
84
84
84
78
ENDCHAR
STARTCHAR 030b
ENCODING 4929
SWIDTH 480 0
DWIDTH 8 0
BBX 8 11 0 -1
BITMAP
78
84
84
84
FC
84
87
84
84
84
78
ENDCHAR
STARTCHAR 030c
ENCODING 4930
SWIDTH 480 0
DWIDTH 8 0
BBX 7 11 0 -1
BITMAP
70
88
F8
88
7C
04
08
10
10
10
1E
ENDCHAR
STARTCHAR 030d
ENCODING 4931
SWIDTH 480 0
DWIDTH 8 0
BBX 6 11 0 -1
BITMAP
70
88
F8
88
7C
04
04
04
04
04
04
ENDCHAR
STARTCHAR 030e
ENCODING 4932
SWIDTH 480 0
DWIDTH 8 0
BBX 8 11 0 -1
BITMAP
70
88
F8
88
7C
04
04
04
06
05
06
ENDCHAR
STARTCHAR 030f
ENCODING 4933
SWIDTH 480 0
DWIDTH 8 0
BBX 6 11 0 -1
BITMAP
30
30
78
84
84
FC
84
84
84
84
78
ENDCHAR
STARTCHAR 0310
ENCODING 4934
SWIDTH 480 0
DWIDTH 8 0
BBX 5 11 0 -1
BITMAP
70
88
F8
88
88
70
40
80
80
80
80
ENDCHAR
STARTCHAR 0311
ENCODING 4936
SWIDTH 480 0
DWIDTH 8 0
BBX 8 11 0 -1
BITMAP
20
20
20
20
20
40
80
F0
88
88
7F
ENDCHAR
STARTCHAR 0312
ENCODING 4937
SWIDTH 480 0
DWIDTH 8 0
BBX 8 12 0 -2
BITMAP
40
40
40
40
80
F0
88
88
7F
08
10
20
ENDCHAR
STARTCHAR 0313
ENCODING 4938
SWIDTH 480 0
DWIDTH 8 0
BBX 7 11 0 -1
BITMAP
20
20
20
20
20
40
80
E4
92
92
7C
ENDCHAR
STARTCHAR 0314
ENCODING 4939
SWIDTH 480 0
DWIDTH 8 0
BBX 8 11 0 -1
BITMAP
40
40
40
40
80
F0
88
88
7F
08
08
ENDCHAR
STARTCHAR 0315
ENCODING 4940
SWIDTH 480 0
DWIDTH 8 0
BBX 8 11 0 -1
BITMAP
40
40
40
40
80
E0
90
90
7E
05
02
ENDCHAR
STARTCHAR 0316
ENCODING 4941
SWIDTH 480 0
DWIDTH 8 0
BBX 8 11 0 -1
BITMAP
7C
80
80
80
80
80
F0
88
7F
08
08
ENDCHAR
STARTCHAR 0317
ENCODING 4942
SWIDTH 480 0
DWIDTH 8 0
BBX 8 11 0 -1
BITMAP
7C
94
88
80
80
80
F0
88
7F
08
08
ENDCHAR
STARTCHAR 0318
ENCODING 4943
SWIDTH 480 0
DWIDTH 8 0
BBX 8 11 0 -1
BITMAP
40
40
40
80
F0
88
88
7F
08
3E
22
ENDCHAR
STARTCHAR 0319
ENCODING 4944
SWIDTH 480 0
DWIDTH 8 0
BBX 7 11 0 -1
BITMAP
FE
92
10
10
10
10
10
10
10
10
10
ENDCHAR
STARTCHAR 031a
ENCODING 4945
SWIDTH 480 0
DWIDTH 8 0
BBX 7 11 0 -1
BITMAP
FE
92
10
10
10
10
1E
10
10
10
10
ENDCHAR
STARTCHAR 031b
ENCODING 4946
SWIDTH 480 0
DWIDTH 8 0
BBX 7 11 0 -1
BITMAP
FE
92
10
10
10
10
10
10
10
10
1E
ENDCHAR
STARTCHAR 031c
ENCODING 4947
SWIDTH 480 0
DWIDTH 8 0
BBX 7 11 0 -1
BITMAP
FE
92
10
10
10
10
10
10
10
10
E0
ENDCHAR
STARTCHAR 031d
ENCODING 4948
SWIDTH 480 0
DWIDTH 8 0
BBX 7 11 0 -1
BITMAP
FE
92
10
10
10
10
10
10
1C
12
1C
ENDCHAR
STARTCHAR 031e
ENCODING 4949
SWIDTH 480 0
DWIDTH 8 0
BBX 7 11 0 -1
BITMAP
FE
92
10
18
08
08
08
08
08
08
08
ENDCHAR
STARTCHAR 031f
ENCODING 4950
SWIDTH 480 0
DWIDTH 8 0
BBX 7 11 0 -1
BITMAP
FE
92
10
10
20
20
40
40
80
80
80
ENDCHAR
STARTCHAR 0320
ENCODING 4951
SWIDTH 480 0
DWIDTH 8 0
BBX 7 11 0 -1
BITMAP
FE
92
10
10
10
10
10
10
10
7C
44
ENDCHAR
STARTCHAR mYa
ENCODING 4952
SWIDTH 480 0
DWIDTH 8 0
BBX 8 12 0 -2
BITMAP
7C
10
7E
A5
A5
A5
43
01
01
01
01
01
ENDCHAR
STARTCHAR 0322
ENCODING 4953
SWIDTH 480 0
DWIDTH 8 0
BBX 6 11 0 -1
BITMAP
88
F8
20
20
40
40
80
88
84
84
78
ENDCHAR
STARTCHAR 0323
ENCODING 4954
SWIDTH 480 0
DWIDTH 8 0
BBX 7 11 0 -1
BITMAP
88
F8
20
20
20
40
80
E4
92
92
7C
ENDCHAR
STARTCHAR 0324
ENCODING 4960
SWIDTH 480 0
DWIDTH 8 0
BBX 0 0 0 0
BITMAP
ENDCHAR
STARTCHAR 0325
ENCODING 4961
SWIDTH 480 0
DWIDTH 8 0
BBX 2 5 3 1
BITMAP
C0
C0
00
C0
C0
ENDCHAR
STARTCHAR 0326
ENCODING 4962
SWIDTH 480 0
DWIDTH 8 0
BBX 5 5 1 1
BITMAP
D8
D8
00
D8
D8
ENDCHAR
STARTCHAR 0327
ENCODING 4963
SWIDTH 480 0
DWIDTH 8 0
BBX 6 5 1 3
BITMAP
FC
00
30
00
30
ENDCHAR
STARTCHAR 0328
ENCODING 4964
SWIDTH 480 0
DWIDTH 8 0
BBX 6 7 1 1
BITMAP
FC
00
30
00
30
00
FC
ENDCHAR
STARTCHAR 0329
ENCODING 4965
SWIDTH 480 0
DWIDTH 8 0
BBX 6 7 1 1
BITMAP
30
30
00
FC
00
30
30
ENDCHAR
STARTCHAR 032a
ENCODING 4966
SWIDTH 480 0
DWIDTH 8 0
BBX 5 7 3 1
BITMAP
C0
C0
00
78
00
C0
C0
ENDCHAR
STARTCHAR 032b
ENCODING 4967
SWIDTH 480 0
DWIDTH 8 0
BBX 2 8 3 1
BITMAP
C0
C0
00
C0
C0
00
C0
C0
ENDCHAR
STARTCHAR 032c
ENCODING 4968
SWIDTH 480 0
DWIDTH 8 0
BBX 8 9 0 1
BITMAP
18
18
C3
DB
18
DB
C3
18
18
ENDCHAR
STARTCHAR NUMBER-1
ENCODING 4969
SWIDTH 480 0
DWIDTH 8 0
BBX 8 12 0 -2
BITMAP
7C
00
00
30
30
70
6C
6C
6C
38
00
7C
ENDCHAR
STARTCHAR 032e
ENCODING 4970
SWIDTH 480 0
DWIDTH 8 0
BBX 8 12 0 -2
BITMAP
3E
00
3C
66
6E
7C
60
78
6C
38
00
3E
ENDCHAR
STARTCHAR 032f
ENCODING 4971
SWIDTH 480 0
DWIDTH 8 0
BBX 8 12 0 -2
BITMAP
7C
00
7C
64
60
60
60
60
60
60
00
7C
ENDCHAR
STARTCHAR 0330
ENCODING 4972
SWIDTH 480 0
DWIDTH 8 0
BBX 8 12 0 -2
BITMAP
7C
00
38
6C
6C
6C
6C
6C
6C
38
00
7C
ENDCHAR
STARTCHAR 0331
ENCODING 4973
SWIDTH 480 0
DWIDTH 8 0
BBX 8 12 0 -2
BITMAP
7E
00
18
18
18
3E
62
60
60
3E
00
7E
ENDCHAR
STARTCHAR 0332
ENCODING 4974
SWIDTH 480 0
DWIDTH 8 0
BBX 8 12 0 -2
BITMAP
FE
00
F8
98
18
18
18
18
18
1E
00
FE
ENDCHAR
STARTCHAR 0333
ENCODING 4975
SWIDTH 480 0
DWIDTH 8 0
BBX 8 12 0 -2
BITMAP
FE
00
F8
98
18
18
18
1C
1A
1C
00
FE
ENDCHAR
STARTCHAR 0334
ENCODING 4976
SWIDTH 480 0
DWIDTH 8 0
BBX 8 12 0 -2
BITMAP
7E
00
7E
18
18
18
18
18
18
7E
00
7E
ENDCHAR
STARTCHAR 0335
ENCODING 4977
SWIDTH 480 0
DWIDTH 8 0
BBX 8 12 0 -2
BITMAP
7E
00
66
66
7E
66
66
66
66
3C
00
7E
ENDCHAR
STARTCHAR 0336
ENCODING 4978
SWIDTH 480 0
DWIDTH 8 0
BBX 8 12 0 -2
BITMAP
7E
00
18
18
18
18
18
18
18
18
00
7E
ENDCHAR
STARTCHAR 0337
ENCODING 4979
SWIDTH 480 0
DWIDTH 8 0
BBX 8 12 0 -2
BITMAP
7E
00
7E
18
18
30
6C
66
66
66
00
7E
ENDCHAR
STARTCHAR 0338
ENCODING 4980
SWIDTH 480 0
DWIDTH 8 0
BBX 8 12 0 -2
BITMAP
FF
00
00
4E
DB
DB
DB
DB
DB
72
00
FF
ENDCHAR
STARTCHAR 0339
ENCODING 4981
SWIDTH 480 0
DWIDTH 8 0
BBX 8 12 0 -2
BITMAP
FF
00
DB
DB
DF
DB
73
03
03
03
00
FF
ENDCHAR
STARTCHAR 033a
ENCODING 4982
SWIDTH 480 0
DWIDTH 8 0
BBX 8 12 0 -2
BITMAP
FF
00
66
66
66
66
3E
06
06
06
00
FF
ENDCHAR
STARTCHAR 033b
ENCODING 4983
SWIDTH 480 0
DWIDTH 8 0
BBX 8 12 0 -2
BITMAP
FF
00
7E
18
18
0C
0C
0C
0C
3F
00
FF
ENDCHAR
STARTCHAR 033c
ENCODING 4984
SWIDTH 480 0
DWIDTH 8 0
BBX 8 12 0 -2
BITMAP
FF
00
3E
65
62
60
60
60
60
3E
00
FF
ENDCHAR
STARTCHAR 033d
ENCODING 4985
SWIDTH 480 0
DWIDTH 8 0
BBX 8 12 0 -2
BITMAP
FF
00
FF
24
24
24
24
24
24
24
00
FF
ENDCHAR
STARTCHAR 033e
ENCODING 4986
SWIDTH 480 0
DWIDTH 8 0
BBX 8 12 0 -2
BITMAP
FF
00
78
0C
0C
1C
06
06
06
06
00
FF
ENDCHAR
STARTCHAR 033f
ENCODING 4987
SWIDTH 480 0
DWIDTH 8 0
BBX 8 12 0 -2
BITMAP
FF
00
3C
66
66
2C
30
30
30
30
00
FF
ENDCHAR
STARTCHAR 0340
ENCODING 4988
SWIDTH 480 0
DWIDTH 8 0
BBX 8 12 0 -2
BITMAP
FF
00
66
99
99
AA
CC
CC
CC
CC
00
FF
ENDCHAR
STARTCHAR 0341
ENCODING 4992
SWIDTH 480 0
DWIDTH 8 0
BBX 8 10 0 -2
BITMAP
18
99
42
24
DB
DB
24
42
99
18
ENDCHAR
STARTCHAR 0342
ENCODING 4993
SWIDTH 480 0
DWIDTH 8 0
BBX 4 10 2 -1
BITMAP
60
60
00
60
60
60
F0
F0
F0
60
ENDCHAR
STARTCHAR 0343
ENCODING 4994
SWIDTH 480 0
DWIDTH 8 0
BBX 2 2 3 0
BITMAP
C0
C0
ENDCHAR
STARTCHAR 0344
ENCODING 4995
SWIDTH 480 0
DWIDTH 8 0
BBX 8 7 0 0
BITMAP
1B
36
6C
D8
6C
36
1B
ENDCHAR
STARTCHAR 0345
ENCODING 4996
SWIDTH 480 0
DWIDTH 8 0
BBX 8 7 0 0
BITMAP
D8
6C
36
1B
36
6C
D8
ENDCHAR
STARTCHAR 0346
ENCODING 4997
SWIDTH 480 0
DWIDTH 8 0
BBX 7 10 1 -1
BITMAP
7C
C6
C6
0C
18
30
30
00
30
30
ENDCHAR
ENDFONT
